<?xml version="1.0" standalone="no"?>
<!DOCTYPE svg PUBLIC "-//W3C//DTD SVG 20010904//EN"
 "http://www.w3.org/TR/2001/REC-SVG-20010904/DTD/svg10.dtd">
<svg version="1.0" xmlns="http://www.w3.org/2000/svg"
 width="256.000000pt" height="256.000000pt" viewBox="0 0 256.000000 256.000000"
 preserveAspectRatio="xMidYMid meet">

<g transform="translate(0.000000,256.000000) scale(0.100000,-0.100000)"
fill="#000000" stroke="none">
<path d="M1122 1837 l-162 -162 165 -165 165 -165 165 165 165 165 -162 162
c-90 90 -165 163 -168 163 -3 0 -78 -73 -168 -163z"/>
<path d="M720 1445 l-165 -165 168 -167 167 -168 160 160 c88 88 160 164 160
170 0 6 -73 83 -163 173 l-162 162 -165 -165z"/>
<path d="M1515 1440 l-160 -160 168 -167 167 -168 111 110 c61 61 133 136 161
168 l51 58 -159 160 c-87 87 -163 159 -169 159 -6 0 -82 -72 -170 -160z"/>
<path d="M1122 1037 l-162 -162 165 -165 165 -165 165 165 165 165 -162 162
c-90 90 -165 163 -168 163 -3 0 -78 -73 -168 -163z"/>
</g>
</svg>
